<svg width="267" height="60" viewBox="0 0 267 60" fill="none" xmlns="http://www.w3.org/2000/svg"><path d="M65.72 24.102L48.044 6.426a1.502 1.502 0 0 0-2.095 0l-3.492 3.491 14.185 14.185a1.501 1.501 0 0 1 0 2.096L42.02 40.818l3.492 3.493a1.501 1.501 0 0 0 2.095 0l18.07-18.07a1.514 1.514 0 0 0 .043-2.139z" fill="#009C9C"/><path d="M35.605 7.735L34.339 6.47a1.502 1.502 0 0 0-2.095 0l-3.492 3.49 2.313 2.314 4.54 4.539 4.539-4.54-4.54-4.539zm-.393 26.275l-4.54 4.54-2.313 2.313 3.492 3.492a1.502 1.502 0 0 0 2.095 0l1.266-1.266 4.539-4.54-4.54-4.539z" fill="#40E3E3"/><path d="M42.98 24.102a1.501 1.501 0 0 1 0 2.095l-7.768 7.77 4.539 4.538 12.308-12.308a1.501 1.501 0 0 0 0-2.095L40.187 12.23l-4.582 4.54 7.376 7.332z" fill="#1ABAB8"/><path d="M14.13 24.539L26.44 12.23 21.9 7.69l-1.309-1.265a1.502 1.502 0 0 0-2.095 0L.425 24.539a1.502 1.502 0 0 0 0 2.095L18.103 44.31a1.502 1.502 0 0 0 2.096 0l1.309-1.266 4.539-4.54-11.872-11.871a1.461 1.461 0 0 1-.043-2.095z" fill="#87F0F0"/><path d="M27.836 24.539l5.412-5.412-4.54-4.54-2.313-2.313-12.22 12.309a1.502 1.502 0 0 0 0 2.095l11.828 11.828 2.313-2.313 4.539-4.54-5.02-5.019a1.502 1.502 0 0 1 0-2.095z" fill="#40E3E3"/><path d="M27.835 26.634l5.02 5.02 5.412-5.413a1.502 1.502 0 0 0 0-2.095l-5.02-5.019-5.412 5.412a1.593 1.593 0 0 0 0 2.095z" fill="#17CFCF"/><path d="M79.905 20.392c.042-2.004.44-3.985 1.179-5.848a13.433 13.433 0 0 1 3.055-4.54 14.01 14.01 0 0 1 4.976-2.924 20.68 20.68 0 0 1 6.896-1.047 20.818 20.818 0 0 1 7.681 1.178 14.983 14.983 0 0 1 4.801 2.88 9.7 9.7 0 0 1 2.488 3.449c.428.956.708 1.971.829 3.011a1.177 1.177 0 0 1-.392 1.048 1.564 1.564 0 0 1-1.048.393h-4.321a1.37 1.37 0 0 1-.916-.306 1.577 1.577 0 0 1-.481-.61c-.087-.132-.261-.437-.567-.917a5.821 5.821 0 0 0-1.44-1.484 10.162 10.162 0 0 0-6.59-2.008 9.301 9.301 0 0 0-6.417 2.139 8.067 8.067 0 0 0-2.575 5.804c-.087 1.354-.087 2.794-.087 4.365 0 1.571 0 3.012.087 4.365.087 2.968.96 5.106 2.575 6.416a9.912 9.912 0 0 0 6.373 2.007 14.443 14.443 0 0 0 3.622-.436 7.523 7.523 0 0 0 2.837-1.397 6.03 6.03 0 0 0 1.877-2.531c.478-1.223.7-2.53.655-3.841v-.437h-6.504a1.264 1.264 0 0 1-1.004-.436 1.423 1.423 0 0 1-.436-1.004v-3.797a1.453 1.453 0 0 1 1.44-1.44h12.309a1.451 1.451 0 0 1 1.44 1.44v5.849c.04 2.01-.301 4.009-1.004 5.892a12.6 12.6 0 0 1-3.055 4.626 14.314 14.314 0 0 1-5.063 3.055 23.683 23.683 0 0 1-14.141 0 13.464 13.464 0 0 1-4.932-2.924 13.059 13.059 0 0 1-3.012-4.626 18.098 18.098 0 0 1-1.135-5.893c0-.654-.043-1.44-.087-2.226v-5.019c0-.83.044-1.527.087-2.226zm48.796 1.659a6.984 6.984 0 0 0-2.662.436 5.09 5.09 0 0 0-1.833 1.179 4.712 4.712 0 0 0-1.135 1.615 4.523 4.523 0 0 0-.48 1.658h12.046a10.254 10.254 0 0 0-.392-1.658 4.684 4.684 0 0 0-.961-1.615 4.752 4.752 0 0 0-1.746-1.179 7.024 7.024 0 0 0-2.837-.436zm-13.05 7.987a17.695 17.695 0 0 1 .917-5.63 13.512 13.512 0 0 1 2.619-4.627 11.909 11.909 0 0 1 4.146-3.055 13.468 13.468 0 0 1 5.368-1.135 12.866 12.866 0 0 1 9.559 4.059 13.758 13.758 0 0 1 2.662 4.321c.632 1.658.943 3.42.917 5.194v2.4a1.45 1.45 0 0 1-1.44 1.44h-17.808a5.1 5.1 0 0 0 .48 2.14 4.57 4.57 0 0 0 1.353 1.527 6.84 6.84 0 0 0 1.964.96 8.22 8.22 0 0 0 2.313.306 8.77 8.77 0 0 0 2.794-.35 5.474 5.474 0 0 0 1.746-.872c.303-.229.624-.433.96-.611a2.561 2.561 0 0 1 1.004-.175h4.277c.392.005.768.162 1.048.437a1.114 1.114 0 0 1 .392 1.004 4.452 4.452 0 0 1-.829 1.92 8.342 8.342 0 0 1-2.313 2.313 14.405 14.405 0 0 1-3.841 1.92 15.42 15.42 0 0 1-5.238.786 14.168 14.168 0 0 1-5.368-1.047 11.567 11.567 0 0 1-4.146-2.924 13.33 13.33 0 0 1-2.619-4.583 15.722 15.722 0 0 1-.917-5.718zm38.976 3.84a3.744 3.744 0 0 0 .873 2.62c.568.654 1.659 1.004 3.274 1.004h3.229a1.454 1.454 0 0 1 1.441 1.44v3.535a1.453 1.453 0 0 1-1.441 1.44h-3.971c-3.361 0-5.893-.829-7.682-2.444-1.79-1.615-2.662-4.102-2.706-7.42V22.575h-3.535a1.266 1.266 0 0 1-1.004-.437 1.417 1.417 0 0 1-.437-1.004V17.6a1.274 1.274 0 0 1 .437-1.004 1.423 1.423 0 0 1 1.004-.436h3.535V7.473a1.451 1.451 0 0 1 1.44-1.44h4.059a1.453 1.453 0 0 1 1.441 1.44v8.686h6.896a1.476 1.476 0 0 1 1.396 1.44v3.535a1.453 1.453 0 0 1-1.44 1.44h-6.896l.087 11.305zm35.048-3.884l-5.892-15.188-5.849 15.188h11.741zm-2.968-23.438a1.674 1.674 0 0 1 1.266.437c.344.398.61.857.785 1.353l13.051 33.738c.033.114.048.231.043.35a1.453 1.453 0 0 1-1.44 1.44h-3.841a2.006 2.006 0 0 1-1.484-.437 2.73 2.73 0 0 1-.567-.873l-2.313-5.935h-16.848l-2.313 5.935a3.02 3.02 0 0 1-.567.873 1.891 1.891 0 0 1-1.484.437h-3.841a1.453 1.453 0 0 1-1.441-1.44.88.88 0 0 1 .044-.35l13.05-33.738c.176-.496.442-.955.786-1.353a1.747 1.747 0 0 1 1.266-.437h5.848zm38.016 24.966c.087-.987.087-1.98 0-2.968-.218-2.313-.917-3.972-2.139-4.976a7.122 7.122 0 0 0-8.816 0 6.359 6.359 0 0 0-2.052 4.409 10.37 10.37 0 0 0-.087 2.007c0 .699.044 1.353.087 2.008a6.439 6.439 0 0 0 2.052 4.365 6.345 6.345 0 0 0 4.408 1.615 6.695 6.695 0 0 0 4.408-1.528c1.222-1.004 1.921-2.662 2.139-4.932zm-4.932 12.92a13.433 13.433 0 0 1-2.968-.306 11.119 11.119 0 0 1-2.313-.786 9.893 9.893 0 0 1-1.659-1.091 8.535 8.535 0 0 1-1.135-1.048V52.56a1.453 1.453 0 0 1-1.44 1.44h-4.015a1.454 1.454 0 0 1-1.441-1.44V17.6a1.458 1.458 0 0 1 1.441-1.44h4.059a1.45 1.45 0 0 1 1.44 1.44v1.222a6.455 6.455 0 0 1 1.135-1.048 9.925 9.925 0 0 1 4.015-1.833 13.439 13.439 0 0 1 2.968-.305 11.003 11.003 0 0 1 8.511 3.84 12.937 12.937 0 0 1 2.401 4.016c.571 1.512.909 3.1 1.004 4.714.043.524.043 1.135.043 1.877s0 1.353-.043 1.876a14.47 14.47 0 0 1-1.004 4.714 12.939 12.939 0 0 1-2.401 4.016 11.547 11.547 0 0 1-3.666 2.793c-1.56.657-3.239.984-4.932.96zm35.091-12.92c.088-.987.088-1.98 0-2.968-.218-2.313-.916-3.972-2.138-4.976a7.125 7.125 0 0 0-8.817 0 6.353 6.353 0 0 0-2.051 4.409 10.292 10.292 0 0 0-.088 2.007c0 .699.044 1.353.088 2.008a6.437 6.437 0 0 0 2.051 4.365 6.347 6.347 0 0 0 4.408 1.615 6.698 6.698 0 0 0 4.409-1.528c1.222-1.004 1.92-2.662 2.138-4.932zm-4.975 12.876a13.433 13.433 0 0 1-2.968-.306 11.122 11.122 0 0 1-2.314-.786 8.968 8.968 0 0 1-1.658-1.047 8.535 8.535 0 0 1-1.135-1.048V52.56a1.494 1.494 0 0 1-1.44 1.44h-4.059a1.454 1.454 0 0 1-1.441-1.44V17.6a1.458 1.458 0 0 1 1.441-1.44h4.059a1.45 1.45 0 0 1 1.44 1.44v1.222a8.535 8.535 0 0 1 1.135-1.048 13.2 13.2 0 0 1 1.658-1.047c.74-.346 1.516-.61 2.314-.786.975-.211 1.97-.314 2.968-.305a11.006 11.006 0 0 1 8.511 3.84 12.935 12.935 0 0 1 2.4 4.016c.571 1.512.91 3.1 1.004 4.714.044.524.044 1.135.044 1.877s0 1.353-.044 1.876a14.444 14.444 0 0 1-1.004 4.714 12.936 12.936 0 0 1-2.4 4.016 12.043 12.043 0 0 1-3.667 2.793 11.66 11.66 0 0 1-4.844 1.047" fill="#424A52"/></svg>