<svg width="60" height="60" viewBox="0 0 60 60" fill="none" xmlns="http://www.w3.org/2000/svg"><path d="M0 3.006A3.006 3.006 0 0 1 3.006 0h53.988A3.006 3.006 0 0 1 60 3.006v53.988A3.006 3.006 0 0 1 56.994 60H3.006A3.006 3.006 0 0 1 0 56.994V3.006z" fill="url(#a)"/><path d="M19.511 43.682l.006.002-2.024 3.506a2.676 2.676 0 0 1-4.635-2.676l1.491-2.583.143-.248c.256-.367.886-1.001 2.148-.882 0 0 2.969.322 3.184 1.865 0 0 .029.508-.313 1.016zm28.711-8.955H41.91c-.43-.03-.618-.183-.692-.272l-.004-.008-6.758-11.704-.008.006-.406-.58c-.664-1.017-1.718 1.581-1.718 1.581-1.26 2.895.178 6.186.68 7.18l9.385 16.256a2.676 2.676 0 1 0 4.635-2.676l-2.347-4.065c-.046-.098-.125-.366.356-.367h3.189a2.676 2.676 0 0 0 0-5.351zm-12.26 3.637s.336 1.714-.967 1.714H11.66a2.676 2.676 0 1 1 0-5.351h5.999c.968-.056 1.198-.615 1.198-.615l.005.002 7.831-13.563h-.002a.597.597 0 0 0 .003-.55l-2.586-4.479a2.676 2.676 0 1 1 4.634-2.676l1.2 2.078 1.197-2.074a2.676 2.676 0 1 1 4.635 2.676L24.877 34.4c-.048.115-.062.295.292.327h6.514l.001.063s3.765.059 4.277 3.574z" fill="#fff"/><defs><linearGradient id="a" x1="30" y1="60" x2="30" gradientUnits="userSpaceOnUse"><stop stop-color="#1D76F2"/><stop offset="1" stop-color="#1AC2FB"/></linearGradient></defs></svg>