<svg width="53" height="60" viewBox="0 0 53 60" fill="none" xmlns="http://www.w3.org/2000/svg"><path d="M33.634 18.289L1.928.167A1.277 1.277 0 0 0 .643.18 1.269 1.269 0 0 0 0 1.285s.013 1.671.026 4.421L23.12 28.802l10.513-10.513z" fill="url(#a)"/><path d="M.026 5.706C.064 15.628.18 39.713.23 51.704L23.134 28.8.026 5.706z" fill="url(#b)"/><path d="M51.78 28.66L33.635 18.29 23.108 28.801l11.875 11.875 16.81-9.793c.4-.231.643-.655.643-1.105 0-.463-.257-.887-.655-1.118z" fill="url(#c)"/><path d="M.219 51.704c.025 4.28.038 7.017.038 7.017 0 .463.244.887.643 1.106.398.23.886.23 1.285 0L34.996 40.69 23.121 28.815.219 51.703z" fill="url(#d)"/><defs><linearGradient id="a" y1="14.406" x2="33.64" y2="14.406" gradientUnits="userSpaceOnUse"><stop stop-color="#63BE6B"/><stop offset=".506" stop-color="#5BBC6A"/><stop offset="1" stop-color="#4AB96A"/></linearGradient><linearGradient id="b" x1=".02" y1="28.71" x2="23.12" y2="28.71" gradientUnits="userSpaceOnUse"><stop stop-color="#3EC6F2"/><stop offset="1" stop-color="#45AFE3"/></linearGradient><linearGradient id="c" x1="23.12" y1="29.491" x2="52.433" y2="29.491" gradientUnits="userSpaceOnUse"><stop stop-color="#FAA51A"/><stop offset=".387" stop-color="#FAB716"/><stop offset=".741" stop-color="#FAC412"/><stop offset="1" stop-color="#FAC80F"/></linearGradient><linearGradient id="d" x1=".224" y1="44.407" x2="34.996" y2="44.407" gradientUnits="userSpaceOnUse"><stop stop-color="#EC3B50"/><stop offset="1" stop-color="#E7515B"/></linearGradient></defs></svg>