<svg width="267" height="60" viewBox="0 0 267 60" fill="none" xmlns="http://www.w3.org/2000/svg"><g clip-path="url(#a)"><path d="M-.6 22.036h38.896V7.059L-.6 22.036z" fill="#FF9D28"/><path d="M38.296 7.059V60L56.688 0 38.296 7.059z" fill="#68C5ED"/><path d="M38.296 22.036H23.6l14.696 37.919V22.036z" fill="#044D80"/><path d="M-.6 22.036l27.984 9.729-3.784-9.729H-.6z" fill="#E54747"/><path d="M88.544 46.018c-.22.226-.572.498-1.056.814a11.14 11.14 0 0 1-1.936.996c-.792.316-1.76.633-2.948.86-1.144.226-2.464.361-3.96.361-2.86 0-5.368-.497-7.48-1.402-2.112-.95-3.828-2.263-5.192-3.982-1.364-1.72-2.376-3.71-2.992-6.018-.66-2.308-.968-4.887-.968-7.647 0-2.76.352-5.34 1.056-7.693.704-2.353 1.716-4.389 3.124-6.108 1.364-1.72 3.124-3.077 5.192-4.027 2.068-.95 4.532-1.448 7.348-1.448 1.364 0 2.64.135 3.74.362 1.1.271 2.112.543 2.948.905.836.362 1.54.724 2.068 1.086.572.362.968.724 1.232.95.308.271.616.633.836 1.04.22.408.352.86.352 1.313 0 .724-.264 1.448-.792 2.172a15.24 15.24 0 0 1-1.76 2.036c-.44-.453-.924-.905-1.452-1.358a10.647 10.647 0 0 0-1.804-1.22c-.66-.362-1.408-.634-2.244-.86a10.662 10.662 0 0 0-2.816-.362c-1.804 0-3.344.362-4.576 1.131-1.232.77-2.2 1.72-2.948 2.941-.748 1.222-1.276 2.58-1.584 4.118a24.148 24.148 0 0 0-.484 4.751c0 1.72.176 3.349.484 4.932.308 1.584.88 2.942 1.672 4.163a8.713 8.713 0 0 0 3.08 2.896c1.276.724 2.816 1.086 4.708 1.086 1.012 0 1.892-.136 2.728-.362.836-.271 1.584-.588 2.2-.95.66-.362 1.188-.77 1.672-1.131.484-.408.88-.77 1.188-1.041.22.271.44.588.748.95s.572.77.792 1.131c.264.408.44.815.66 1.222.176.407.264.77.264 1.086 0 .498-.088.86-.264 1.222-.176.316-.484.678-.836 1.086zM116 41.81c0 2.895.396 5.022 1.232 6.334-.66.272-1.232.453-1.804.543-.572.09-1.144.181-1.76.181-1.276 0-2.244-.271-2.904-.769-.66-.497-1.1-1.267-1.276-2.217-.792.86-1.804 1.584-3.124 2.172-1.276.588-2.86.86-4.708.86-.968 0-1.936-.136-2.904-.408a7.375 7.375 0 0 1-2.64-1.357c-.792-.633-1.408-1.448-1.936-2.489-.484-1.04-.748-2.307-.748-3.8 0-1.856.44-3.394 1.32-4.57.88-1.177 1.98-2.082 3.3-2.76 1.32-.68 2.772-1.132 4.268-1.404a40.46 40.46 0 0 1 4.224-.497c.44-.046.836-.046 1.276-.046h1.144v-.995c0-1.403-.352-2.398-1.1-3.032-.748-.588-1.936-.905-3.564-.905-1.54 0-2.904.272-4.092.77a28.478 28.478 0 0 0-3.52 1.764c-.484-.633-.924-1.312-1.188-2.081-.308-.77-.44-1.313-.44-1.674 0-.498.264-.996.836-1.494.572-.497 1.32-.905 2.288-1.312.968-.407 2.068-.679 3.344-.95a21.863 21.863 0 0 1 3.96-.362c1.936 0 3.564.18 4.884.588 1.32.407 2.42 1.04 3.256 1.855a7.23 7.23 0 0 1 1.804 3.168c.352 1.267.528 2.76.528 4.434L116 41.81zm-6.864-6.38h-.748c-.264 0-.484 0-.748.045-.88.09-1.76.18-2.64.316a7.125 7.125 0 0 0-2.332.77c-.66.362-1.232.86-1.672 1.448-.44.588-.66 1.357-.66 2.262 0 1.04.264 1.9.836 2.625.572.724 1.54 1.086 2.904 1.086.66 0 1.32-.09 1.936-.272.616-.18 1.144-.407 1.628-.724a4.889 4.889 0 0 0 1.1-.95c.264-.362.396-.679.396-.95v-5.657zm20.196-10.86c.572-.679 1.452-1.403 2.684-2.127 1.232-.724 2.728-1.086 4.576-1.086 1.32 0 2.596.226 3.784.679 1.188.452 2.244 1.222 3.168 2.217.924 1.04 1.672 2.398 2.2 4.072.572 1.675.836 3.756.836 6.245 0 2.85-.308 5.249-.968 7.104-.66 1.855-1.452 3.348-2.464 4.389-1.012 1.086-2.156 1.855-3.388 2.308a10.898 10.898 0 0 1-3.74.678c-1.012 0-1.936-.135-2.684-.362-.748-.226-1.408-.497-1.936-.814a5.951 5.951 0 0 1-1.232-.86c-.264-.271-.484-.497-.528-.588V60h-7.304V22.172c.176-.046.396-.09.66-.09.22-.046.484-.046.748-.091.308 0 .616-.046 1.012-.046 1.188 0 2.2.181 3.036.589.792.407 1.32 1.086 1.54 2.036zm9.68 10.18a17.02 17.02 0 0 0-.264-3.076 8.252 8.252 0 0 0-.88-2.489c-.396-.679-.968-1.221-1.672-1.629-.704-.407-1.54-.588-2.552-.588-1.496 0-2.552.317-3.124.86-.572.588-.88 1.221-.88 1.945v11.72c.264.317.792.633 1.54 1.04.748.408 1.584.589 2.552.589 1.804 0 3.124-.724 4.004-2.217.836-1.448 1.276-3.485 1.276-6.154zm13.2 9.503c-.264-.724-.396-1.493-.484-2.308-.088-.814-.088-1.629-.088-2.443V13.936c.264-.045.528-.09.792-.09.264-.045.528-.045.792-.09.264 0 .572-.046.836-.046.572 0 1.144.045 1.716.181.572.09 1.1.317 1.54.679.484.316.836.769 1.144 1.357.264.588.44 1.313.44 2.217v3.937h7.524v5.566h-7.48V39.41c0 2.58 1.012 3.847 3.036 3.847.484 0 .968-.09 1.408-.227.44-.18.836-.362 1.188-.543.352-.18.66-.407.924-.633.264-.226.44-.407.572-.498.528.815.968 1.493 1.232 2.082.264.588.44 1.13.44 1.674 0 .498-.176.95-.572 1.403a5.848 5.848 0 0 1-1.584 1.267c-.66.407-1.496.723-2.464.95a13.89 13.89 0 0 1-3.168.362c-2.2 0-3.96-.453-5.192-1.313-1.144-.95-2.024-2.081-2.552-3.529zm32.692-.724c.88 0 1.672-.09 2.376-.317.66-.18 1.276-.452 1.848-.724.528-.271 1.012-.633 1.408-.95a79.61 79.61 0 0 1 1.056-.95c.44.543.88 1.267 1.364 2.127.484.86.704 1.583.704 2.126 0 .815-.44 1.539-1.32 2.218-.748.588-1.804 1.085-3.212 1.538-1.364.407-2.992.633-4.84.633-1.672 0-3.344-.226-4.972-.678a11.315 11.315 0 0 1-4.356-2.308c-1.276-1.086-2.288-2.58-3.08-4.434-.792-1.856-1.188-4.209-1.188-7.014 0-2.308.352-4.299 1.056-5.973.704-1.674 1.628-3.077 2.772-4.163a11.277 11.277 0 0 1 3.96-2.443 13.77 13.77 0 0 1 4.488-.77c1.98 0 3.696.317 5.104.95 1.408.634 2.508 1.494 3.388 2.58.88 1.086 1.496 2.308 1.892 3.71.396 1.403.572 2.851.572 4.39v.769c0 .317 0 .588-.044.95 0 .317-.044.633-.044.95 0 .317-.044.543-.088.724h-15.796c.132 2.036.748 3.71 1.848 5.068 1.056 1.312 2.772 1.991 5.104 1.991zm2.464-11.176c0-1.765-.352-3.213-1.012-4.3-.66-1.085-1.848-1.673-3.564-1.673-1.496 0-2.64.543-3.52 1.584-.88 1.04-1.32 2.488-1.32 4.389h9.416zm19.272-7.648c.22-.316.484-.678.836-1.085.352-.408.792-.77 1.32-1.086.528-.317 1.1-.589 1.716-.815.616-.226 1.276-.317 2.024-.317.44 0 .88.046 1.364.09.484.091.924.227 1.32.408.396.181.748.453 1.012.815.264.362.396.769.396 1.267 0 .814-.176 1.719-.572 2.76-.396 1.04-.792 1.945-1.188 2.67-.616-.498-1.232-.906-1.804-1.177-.616-.271-1.32-.407-2.156-.407-1.1 0-2.024.316-2.772.995-.748.679-1.144 1.448-1.144 2.398V49.05h-7.304V22.126c.176-.045.396-.09.66-.09.22-.045.484-.045.748-.09.264 0 .616-.046 1.012-.046 1.144 0 2.156.226 2.992.679.792.498 1.32 1.176 1.54 2.127zm20.724 0c.22-.316.484-.678.836-1.085.352-.408.792-.77 1.32-1.086.528-.317 1.1-.589 1.716-.815.616-.226 1.276-.317 2.024-.317.44 0 .88.046 1.364.09.484.091.924.227 1.32.408.396.181.748.453 1.012.815.264.362.396.769.396 1.267 0 .814-.176 1.719-.572 2.76-.396 1.04-.792 1.945-1.188 2.67-.616-.498-1.232-.906-1.804-1.177-.616-.271-1.32-.407-2.156-.407-1.1 0-2.024.316-2.772.995-.748.679-1.144 1.448-1.144 2.398V49.05h-7.304V22.126c.176-.045.396-.09.66-.09.22-.045.484-.045.748-.09.264 0 .616-.046 1.012-.046 1.144 0 2.156.226 2.992.679.792.498 1.32 1.176 1.54 2.127zm34.804 17.105c0 2.895.396 5.022 1.232 6.334-.66.272-1.232.453-1.804.543-.572.09-1.144.181-1.76.181-1.276 0-2.244-.271-2.904-.769-.66-.497-1.1-1.267-1.276-2.217-.792.86-1.804 1.584-3.124 2.172-1.276.588-2.86.86-4.708.86a10.71 10.71 0 0 1-2.904-.408 7.375 7.375 0 0 1-2.64-1.357c-.792-.633-1.408-1.448-1.936-2.489-.484-1.04-.748-2.307-.748-3.8 0-1.856.44-3.394 1.32-4.57.88-1.177 1.98-2.082 3.3-2.76 1.32-.68 2.772-1.132 4.268-1.404a40.46 40.46 0 0 1 4.224-.497c.44-.046.836-.046 1.276-.046h1.144v-.995c0-1.403-.352-2.398-1.1-3.032-.748-.588-1.936-.905-3.564-.905-1.54 0-2.904.272-4.092.77a28.49 28.49 0 0 0-3.52 1.764c-.484-.633-.924-1.312-1.188-2.081-.308-.77-.44-1.313-.44-1.674 0-.498.264-.996.836-1.494.572-.497 1.32-.905 2.288-1.312.968-.407 2.068-.679 3.344-.95a21.863 21.863 0 0 1 3.96-.362c1.936 0 3.564.18 4.884.588 1.32.407 2.42 1.04 3.256 1.855a7.23 7.23 0 0 1 1.804 3.168c.352 1.267.528 2.76.528 4.434l.044 10.453zm-6.864-6.38h-.748c-.264 0-.484 0-.748.045-.88.09-1.76.18-2.64.316a7.125 7.125 0 0 0-2.332.77c-.66.362-1.232.86-1.672 1.448-.44.588-.66 1.357-.66 2.262 0 1.04.264 1.9.836 2.625.572.724 1.54 1.086 2.904 1.086.66 0 1.32-.09 1.936-.272.616-.18 1.144-.407 1.628-.724a4.889 4.889 0 0 0 1.1-.95c.264-.362.396-.679.396-.95v-5.657z" fill="#044D80"/></g><defs><clipPath id="a"><path fill="#fff" d="M0 0h267v60H0z"/></clipPath></defs></svg>