<svg width="210" height="60" viewBox="0 0 210 60" fill="none" xmlns="http://www.w3.org/2000/svg"><path d="M43.386 10.011c.94-1.12 1.545-2.29 1.545-3.53 0-2.078-1.688-3.395-3.754-3.395-1.924 0-3.52 1.266-3.822 3.394l-2.814-.692C35.078 2.3 37.876.103 41.16.103c3.688 0 6.62 2.556 6.62 6.352 0 2.077-.942 3.967-2.303 5.566-2.721 3.223-2.788 3.342-5.728 6.873h8.097v2.958H34.793v-1.265l8.593-10.576z" fill="#425F6F"/><path d="M34.843 36.352l.025-10.798h23.016c.236 1.505.353 3.061.353 4.609 0 16.338-13.07 29.632-29.114 29.632C13.07 59.82 0 46.526 0 30.188S13.07.556 29.114.556v10.456c-10.39 0-18.84 8.6-18.84 19.176 0 10.576 8.45 19.177 18.84 19.177 8.258 0 15.322-5.446 17.859-13.013h-12.13zm44.932-7.455c0-7.805.47-10.986 1.739-12.892 1.596-2.386 4.67-3.702 8.685-3.702 3.545 0 6.502 1.051 8.073 2.94 1.192 1.335 1.688 3.198 1.688 6.14v1.769h-6.502c-.092-3.343-.184-3.941-.655-4.66-.512-.812-1.503-1.316-2.696-1.316-1.294 0-2.344.573-2.789 1.436-.655 1.334-.848 3.796-.848 10.243 0 5.326.235 8.43.655 9.746.378 1.094 1.453 1.718 2.89 1.718 2.536 0 3.233-1.316 3.452-6.232h6.476c-.05 4.155-.285 5.848-1.15 7.472-1.193 2.343-4.343 3.65-8.871 3.65-5.275 0-8.467-1.983-9.526-5.805-.411-1.547-.621-5.3-.621-10.507zm23.915-16.09h10.063c4.83 0 5.703.188 7.392 1.573 1.503 1.266 2.251 3.343 2.251 6.42 0 2.583-.512 4.566-1.504 5.9-.848 1.171-1.873 1.676-4.082 2.172 4.2.521 5.653 2.53 5.704 7.908 0 .863.092 2.624.184 4.822.093 1.53.143 1.812.513 3.155h-6.922c-.285-2.078-.285-2.13-.285-6.045 0-3.847-.286-5.754-1.034-6.617-.512-.573-1.075-.718-2.746-.718h-3.142v13.397h-6.409l.017-31.967zm9.03 13.85c2.931 0 3.99-1.265 3.99-4.608 0-1.77-.471-3.197-1.244-3.89-.562-.479-.982-.573-2.578-.573h-2.84v9.071h2.672zm14.758 2.078c0-7.455.328-10.029 1.596-12.277 1.504-2.745 4.62-4.155 9.056-4.155 4.905 0 8.232 1.864 9.525 5.369.655 1.718.941 5.087.941 11.225 0 6.712-.328 9.883-1.243 11.704-1.504 3.035-4.713 4.66-9.173 4.66s-7.535-1.385-9.08-4.155c-1.269-2.223-1.622-4.873-1.622-12.371zm10.559 11.601c1.949 0 3.1-.957 3.495-2.838.235-1.214.42-5.37.42-9.84 0-4.797-.236-7.618-.706-8.764-.42-1.051-1.646-1.718-3.192-1.718-1.781 0-3.024.812-3.377 2.197-.327 1.334-.512 4.66-.512 9.746 0 4.224.143 6.994.378 8.336.353 1.924 1.495 2.881 3.494 2.881zm12.667-27.529h6.544l2.134 11.653c.747 4.223.94 8.07 1.293 15.423 1.311-9.789 1.739-12.516 2.344-15.423l2.486-11.653h7.342l2.343 11.653c1.076 5.326 1.311 8.934 1.647 15.423.42-5.42.848-9.387 1.873-15.423l2.041-11.653h5.746l-6.334 31.975h-7.106l-2.965-14.859c-.513-2.582-1.151-8.618-1.294-11.892-.941 7.19-.983 8.216-1.739 11.892l-3.049 14.85h-7.274l-6.032-31.966zm38.598 0h8.778c5.091 0 6.645.29 8.232 1.436 1.991 1.48 2.982 4.062 3.402 9.123.143 1.983.236 4.514.236 6.762 0 5.754-.395 8.575-1.311 10.456-1.31 2.702-4.343 4.224-8.232 4.224h-11.071l-.034-32zm9.366 26.93c2.252 0 3.495-.52 3.94-1.718.47-1.265.613-3.103.613-8.335 0-5.711-.185-8.216-.705-9.79-.471-1.333-1.739-2.077-3.688-2.077h-2.932v21.92h2.772zM70.249.215h-2.091v59.008h2.091V.214z" fill="#425F6F"/></svg>