<svg width="96" height="96" viewBox="0 0 96 96" fill="none" xmlns="http://www.w3.org/2000/svg"><rect opacity=".87" x="17" y="27" width="73" height="54" rx="6" stroke="#52C2CC" stroke-width="4"/><rect x="53" y="40" width="26" height="10" rx="5" fill="#97DAE0"/><rect x="28" y="58" width="51" height="10" rx="5" fill="#97DAE0"/><path d="M22.5 50h16.188c.613 0 1.201-.237 1.635-.659.434-.422.677-.994.677-1.59V32c-.001-4.774-1.95-9.351-5.42-12.727-3.469-3.375-8.174-5.272-13.08-5.273H6.311c-.613 0-1.2.237-1.634.659A2.219 2.219 0 0 0 4 16.249V32c.001 4.774 1.95 9.351 5.42 12.727 3.469 3.375 8.174 5.272 13.08 5.273z" fill="#52C2CC" style="mix-blend-mode:multiply"/></svg>