<svg width="252" height="152" viewBox="0 0 252 152" fill="none" xmlns="http://www.w3.org/2000/svg"><path d="M87.658 3H12.192A7.192 7.192 0 0 0 5 10.192v40.584a7.192 7.192 0 0 0 7.192 7.192h75.466a7.192 7.192 0 0 0 7.193-7.192V10.192A7.192 7.192 0 0 0 87.658 3z" fill="#D7F0F2"/><path d="M17.007 16.325h29.872M17.007 30.484h19.047" stroke="#90D7DE" stroke-width="8" stroke-miterlimit="10" stroke-linecap="round"/><path d="M164.86 149h75.466a7.193 7.193 0 0 0 7.193-7.192v-40.584a7.193 7.193 0 0 0-7.193-7.192H164.86a7.192 7.192 0 0 0-7.192 7.192v40.584A7.192 7.192 0 0 0 164.86 149z" fill="#FFEBD0"/><path d="M185.157 127.494c3.326 0 6.022-2.677 6.022-5.979s-2.696-5.979-6.022-5.979-6.022 2.677-6.022 5.979 2.696 5.979 6.022 5.979zm17.436 0c3.326 0 6.023-2.677 6.023-5.979s-2.697-5.979-6.023-5.979c-3.325 0-6.022 2.677-6.022 5.979s2.697 5.979 6.022 5.979zm17.436 0c3.326 0 6.022-2.677 6.022-5.979s-2.696-5.979-6.022-5.979-6.022 2.677-6.022 5.979 2.696 5.979 6.022 5.979z" fill="#FFBD66"/><path d="M148.675 41.058c0 14.077 11.411 25.488 25.488 25.488 14.076 0 25.487-11.411 25.487-25.488 0-14.076-11.411-25.488-25.487-25.488-14.077 0-25.488 11.412-25.488 25.488z" fill="#52C2CC"/><path d="M174.162 43.335a2.276 2.276 0 1 0 0-4.552 2.276 2.276 0 0 0 0 4.552z" fill="#52C2CC"/><path d="M174.161 47.267a6.209 6.209 0 1 0 0-12.418 6.209 6.209 0 0 0 0 12.418z" fill="#52C2CC"/><path d="M155.867 136.277h36.591a7.192 7.192 0 0 0 7.192-7.192V92.494a7.192 7.192 0 0 0-7.192-7.192h-36.591a7.192 7.192 0 0 0-7.192 7.192v36.591a7.192 7.192 0 0 0 7.192 7.192z" stroke="#465175" stroke-miterlimit="10" stroke-linecap="round"/><path d="M174.162 113.064a2.276 2.276 0 1 0 0-4.552 2.276 2.276 0 0 0 0 4.552z" fill="#465175"/><path d="M174.161 116.996a6.208 6.208 0 1 0 .001-12.417 6.208 6.208 0 0 0-.001 12.417z" stroke="#465175" stroke-miterlimit="10" stroke-linecap="round"/><path d="M52.868 110.789c0 14.077 11.411 25.488 25.488 25.488s25.488-11.411 25.488-25.488c0-14.076-11.411-25.487-25.488-25.487-14.076 0-25.488 11.41-25.488 25.487z" fill="#FFBD66"/><path d="M78.356 113.064a2.276 2.276 0 1 0 0-4.552 2.276 2.276 0 0 0 0 4.552z" fill="#FFBD66"/><path d="M78.357 116.996a6.208 6.208 0 1 0 0-12.416 6.208 6.208 0 0 0 0 12.416z" fill="#FFBD66"/><path d="M174.162 43.335a2.276 2.276 0 1 0 0-4.552 2.276 2.276 0 0 0 0 4.552zm-95.806 69.729a2.276 2.276 0 1 0 0-4.552 2.276 2.276 0 0 0 0 4.552z" fill="#465175"/><path d="M96.651 15.723h-36.59a7.192 7.192 0 0 0-7.193 7.192v36.591a7.192 7.192 0 0 0 7.192 7.192h36.591a7.192 7.192 0 0 0 7.193-7.192v-36.59a7.192 7.192 0 0 0-7.192-7.193z" stroke="#465175" stroke-miterlimit="10" stroke-linecap="round"/><path d="M78.356 43.487a2.276 2.276 0 1 0 0-4.552 2.276 2.276 0 0 0 0 4.552z" fill="#465175"/><path d="M78.357 47.419a6.208 6.208 0 1 0 0-12.417 6.208 6.208 0 0 0 0 12.417z" stroke="#465175" stroke-miterlimit="10" stroke-linecap="round"/><path d="M78.356 41.213h95.806m-95.806 69.576h95.806" stroke="#465175" stroke-linecap="round" stroke-linejoin="round" stroke-dasharray="1 4"/></svg>