<svg width="252" height="152" viewBox="0 0 252 152" fill="none" xmlns="http://www.w3.org/2000/svg"><path d="M179.301 24.91c.008-7.494-6.061-13.577-13.556-13.585-7.494-.008-13.577 6.06-13.585 13.555-.009 7.495 6.06 13.578 13.555 13.586 7.495.008 13.577-6.06 13.586-13.555zm0 95.239c.009-7.495-6.06-13.577-13.555-13.586-7.494-.008-13.577 6.061-13.585 13.556-.009 7.494 6.06 13.577 13.555 13.585 7.495.008 13.577-6.06 13.585-13.555z" fill="#FFEBD0"/><path d="M185.1 73.18c.01-10.492-8.548-19.007-19.117-19.017-10.568-.011-19.144 8.486-19.154 18.979-.011 10.493 8.548 19.007 19.116 19.018 10.569.01 19.144-8.487 19.155-18.98z" fill="#FFBD66"/><path d="M80.495 112.808c21.713 0 39.314-17.475 39.314-39.032 0-21.557-17.601-39.033-39.314-39.033S41.18 52.22 41.18 73.776c0 21.557 17.601 39.032 39.314 39.032z" fill="#52C2CC"/><path d="M86.215 73.184h78.306" stroke="#465175" stroke-linecap="round" stroke-linejoin="round" stroke-dasharray="1 4"/><path d="M168.987 73.187a2.985 2.985 0 1 0-5.97-.008 2.985 2.985 0 0 0 5.97.008zm-88.492 3.239a2.986 2.986 0 1 0 0-5.972 2.986 2.986 0 0 0 0 5.972z" fill="#465175"/><path d="M224.9 24.91c.008-7.494-6.06-13.577-13.555-13.585-7.495-.008-13.577 6.06-13.586 13.555-.008 7.495 6.061 13.578 13.556 13.586 7.494.008 13.577-6.06 13.585-13.555zm0 48.288c.008-7.495-6.06-13.578-13.555-13.586-7.495-.009-13.577 6.06-13.586 13.555-.008 7.495 6.061 13.577 13.556 13.586 7.494.008 13.577-6.06 13.585-13.555zm0 46.951c.008-7.495-6.06-13.577-13.555-13.586-7.495-.008-13.577 6.061-13.586 13.556-.008 7.494 6.061 13.577 13.556 13.585 7.494.008 13.577-6.06 13.585-13.555z" fill="#FFEBD0"/><path d="M97.607 3H36.142A9.142 9.142 0 0 0 27 12.142v127.716A9.142 9.142 0 0 0 36.142 149h61.465a9.142 9.142 0 0 0 9.142-9.142V12.142A9.142 9.142 0 0 0 97.607 3z" stroke="#465175" stroke-miterlimit="10" stroke-linecap="round"/><path d="M66.875 139.743a5.407 5.407 0 1 0 0-10.814 5.407 5.407 0 0 0 0 10.814zM60.063 14.577h13.622" stroke="#465175" stroke-miterlimit="10" stroke-linecap="round"/></svg>