<svg width="252" height="152" viewBox="0 0 252 152" fill="none" xmlns="http://www.w3.org/2000/svg"><path d="M200.666 17.185h-77.165a5.371 5.371 0 0 0-5.371 5.371V41.46a5.371 5.371 0 0 0 5.371 5.371h77.165a5.371 5.371 0 0 0 5.371-5.371V22.556a5.371 5.371 0 0 0-5.371-5.37z" fill="#FFBD66"/><path d="M184.987 107.911c0-6.607-5.356-11.962-11.963-11.962-6.607 0-11.962 5.355-11.962 11.962v29.126c0 6.607 5.355 11.962 11.962 11.962 6.607 0 11.963-5.355 11.963-11.962v-29.126z" fill="#90D7DE"/><path d="M216.861 136.911c0-6.607-5.355-11.962-11.962-11.962-6.607 0-11.963 5.355-11.963 11.962v.125c0 6.607 5.356 11.963 11.963 11.963 6.607 0 11.962-5.356 11.962-11.963v-.125z" fill="#D7F0F2"/><path d="M153.113 89.944c0-6.607-5.355-11.963-11.962-11.963-6.607 0-11.963 5.356-11.963 11.963v47.094c0 6.606 5.356 11.962 11.963 11.962 6.607 0 11.962-5.356 11.962-11.962V89.944z" fill="#52C2CC"/><path d="M203.445 3h-39.338a9.548 9.548 0 0 0-9.548 9.548v38.92a9.548 9.548 0 0 0 9.548 9.548h39.338a9.548 9.548 0 0 0 9.548-9.548v-38.92A9.548 9.548 0 0 0 203.445 3zm-35.591 21.853h31.843m-31.843 13.805h31.843M59.226 113.837C67.353 110 70.832 100.3 66.995 92.172c-3.837-8.127-13.537-11.606-21.664-7.769-8.128 3.837-11.607 13.537-7.77 21.664 3.837 8.128 13.537 11.607 21.665 7.77zm49.118-29.505c5.124-7.388 3.288-17.53-4.101-22.653-7.388-5.123-17.53-3.287-22.653 4.1-5.124 7.389-3.288 17.532 4.1 22.655 7.389 5.123 17.531 3.287 22.654-4.102zM68.933 51.543c.74-8.957-5.92-16.82-14.878-17.56-8.957-.742-16.82 5.92-17.56 14.877-.741 8.957 5.92 16.82 14.877 17.56 8.957.741 16.82-5.92 17.56-14.877zm12.04 15.019L66.83 58.3m-.089 33.37l14.247-8.127" stroke="#465175" stroke-miterlimit="10" stroke-linecap="round"/><path d="M96.93 76.697a2.654 2.654 0 1 0-4.136-3.326 2.654 2.654 0 0 0 4.136 3.326z" fill="#465175"/><path d="M57.831 104.518c2.96-3.044 2.872-7.93-.195-10.91-3.066-2.98-7.951-2.929-10.91.116-2.96 3.045-2.873 7.93.194 10.91 3.067 2.98 7.952 2.929 10.911-.116z" fill="#FFBD66"/><path d="M165.539 32.01h-61.825a8.952 8.952 0 0 0-8.951 8.951v68.645a8.952 8.952 0 0 0 8.951 8.952h61.825a8.953 8.953 0 0 0 8.952-8.952V40.961a8.952 8.952 0 0 0-8.952-8.952z" stroke="#465175" stroke-linecap="round" stroke-linejoin="round" stroke-dasharray="1 4"/><path d="M138.606 34.135a2.984 2.984 0 1 0-4.652-3.74 2.984 2.984 0 0 0 4.652 3.74zm36.378 82.927a2.984 2.984 0 1 0-4.651-3.74 2.984 2.984 0 0 0 4.651 3.74z" fill="#465175"/><path d="M58.268 55.599c2.959-3.045 2.872-7.93-.195-10.91-3.067-2.981-7.952-2.93-10.911.115-2.96 3.045-2.872 7.93.194 10.91 3.067 2.981 7.952 2.93 10.912-.115z" fill="#52C2CC"/></svg>