<svg width="250" height="145" viewBox="0 0 250 145" fill="none" xmlns="http://www.w3.org/2000/svg"><path d="M73.448 9.435H28.9c-3.258 0-5.9 2.64-5.9 5.896v41.507a5.898 5.898 0 0 0 5.9 5.896h44.548c3.258 0 5.9-2.64 5.9-5.896V15.33a5.898 5.898 0 0 0-5.9-5.896z" fill="#D7F0F2"/><path d="M33.244 20.804h26.84m-26.84 11.694h19.671" stroke="#90D7DE" stroke-width="6" stroke-miterlimit="10" stroke-linecap="round"/><path d="M221.3 95.238h-53.417c-3.258 0-5.9 2.64-5.9 5.896v29.318a5.899 5.899 0 0 0 5.9 5.897H221.3c3.259 0 5.9-2.64 5.9-5.897v-29.318a5.898 5.898 0 0 0-5.9-5.896z" fill="#FFEBD0"/><path d="M181.542 120.266c2.489 0 4.507-2.002 4.507-4.471 0-2.47-2.018-4.472-4.507-4.472s-4.507 2.002-4.507 4.472c0 2.469 2.018 4.471 4.507 4.471zm13.05 0c2.489 0 4.507-2.002 4.507-4.471 0-2.47-2.018-4.472-4.507-4.472-2.49 0-4.508 2.002-4.508 4.472 0 2.469 2.018 4.471 4.508 4.471zm13.05 0c2.489 0 4.507-2.002 4.507-4.471 0-2.47-2.018-4.472-4.507-4.472-2.49 0-4.507 2.002-4.507 4.472 0 2.469 2.017 4.471 4.507 4.471zM69.198 71.08c-10.536 0-19.076 8.535-19.076 19.063 0 10.528 8.54 19.062 19.075 19.062 10.536 0 19.076-8.534 19.076-19.062S79.733 71.08 69.198 71.08z" fill="#FFBD66"/><path d="M173.357 25.169c-10.535 0-19.076 8.534-19.076 19.062s8.541 19.063 19.076 19.063 19.076-8.535 19.076-19.063c0-10.528-8.541-19.062-19.076-19.062z" fill="#52C2CC"/><path d="M173.047 46.365a1.703 1.703 0 1 0 .001-3.407 1.703 1.703 0 0 0-.001 3.407zM69.197 92.28a1.703 1.703 0 1 0 .002-3.406 1.703 1.703 0 0 0-.002 3.407zm0-69.98a1.703 1.703 0 1 0 .002-3.406 1.703 1.703 0 0 0-.002 3.406zm103.85 104.338a1.703 1.703 0 1 0 .002-3.406 1.703 1.703 0 0 0-.002 3.406zm-46.181-69.99a.397.397 0 0 1-.387-.323.392.392 0 0 1 .009-.18 1.764 1.764 0 0 1 1.688-1.257 1.76 1.76 0 0 1 1.687 1.257.392.392 0 0 1-.377.503h-2.62zm-14.339 0a.39.39 0 0 1-.314-.157.388.388 0 0 1-.063-.346 1.758 1.758 0 0 1 1.687-1.257 1.762 1.762 0 0 1 1.688 1.257.392.392 0 0 1-.378.503h-2.62z" fill="#465175"/><path d="M129.23 76.99c5.898-3.011 9.444-8.826 10.686-16.365a.302.302 0 0 1 .253-.253c1.834-.246 3.568-3.575 3.568-5.806 0-1.91-.762-3.458-2.673-3.458-1.109 0-2.094.815-2.092 2.526m47.25 52.24h-26.35a5.898 5.898 0 0 0-5.901 5.896v26.332a5.899 5.899 0 0 0 5.901 5.896h26.35a5.899 5.899 0 0 0 5.901-5.896V111.77a5.898 5.898 0 0 0-5.901-5.896zM82.373 1.535h-26.35a5.898 5.898 0 0 0-5.901 5.896v26.333a5.898 5.898 0 0 0 5.9 5.896h26.35c3.26 0 5.901-2.64 5.901-5.896V7.43a5.898 5.898 0 0 0-5.9-5.896zm30.895 75.399l-1.387 10.174c-.117.943-1.008 1.241-1.95 1.368-13.894 1.876-24.68 4.287-36.556 11.445m56.788-23.301l1.135 8.401c.524 4.212.981 4.698 3.961 3.926 17.385-4.507 22.329-14.37 22.329-14.37" stroke="#465175" stroke-width=".8" stroke-miterlimit="10" stroke-linecap="round"/><path d="M135.297 88.95c0 5.147-6.195 9.167-13.687 9.167-7.492 0-15.106-5.391-15.106-13.33" stroke="#465175" stroke-width=".8" stroke-miterlimit="10" stroke-linecap="round"/><path d="M173.232 44.662V28.58a8.039 8.039 0 0 0-2.359-5.691 8.057 8.057 0 0 0-5.695-2.357h-95.98m-.001 70.233v26.127a8.055 8.055 0 0 0 8.054 8.049h95.477" stroke="#465175" stroke-width=".8" stroke-linecap="round" stroke-linejoin="round" stroke-dasharray="1 3"/><path d="M173.047 129.581a4.645 4.645 0 0 0 4.647-4.643 4.646 4.646 0 0 0-4.647-4.644 4.645 4.645 0 0 0 0 9.287zM69.198 25.175a4.645 4.645 0 0 0 4.646-4.644 4.645 4.645 0 0 0-4.646-4.643 4.645 4.645 0 0 0-4.647 4.643 4.645 4.645 0 0 0 4.647 4.644zm49.006 40.985c.533.612 1.754 1.04 3.177 1.04s2.644-.428 3.176-1.04m-5.112 6.572a2.738 2.738 0 0 1 3.874-.024" stroke="#465175" stroke-width=".8" stroke-miterlimit="10" stroke-linecap="round"/><path d="M124.412 78.633c-.998.201-2.015.293-3.032.275-9.631 0-16.593-7.62-18.508-18.507a.3.3 0 0 0-.253-.25c-1.833-.24-3.586-3.522-3.586-5.748 0-1.907.76-3.451 2.667-3.451 2.129 0 4.449-1.35 5.18-3.349l2.851-7.799a1.878 1.878 0 0 1 2.581-1.047l5.159 2.49a8.906 8.906 0 0 0 7.814-.037l4.908-2.426a1.882 1.882 0 0 1 2.598 1.038l2.16 5.712a5.068 5.068 0 0 0 4.762 3.328 2.07 2.07 0 0 0 1.981-2.067V38.48a9.732 9.732 0 0 0-6.144-9.05 38.443 38.443 0 0 0-28.351-.017l-.053.02a9.737 9.737 0 0 0-6.155 9.054v9.39m88.412 33.543c-1.03 7.374-9.118 12.34-18.064 11.092-8.946-1.249-15.363-8.238-14.333-15.612.23-1.63.81-3.19 1.701-4.575m-79.243 42.99a11.506 11.506 0 0 1 1.564 5.761c0 7.446-7.323 13.482-16.356 13.482-9.033 0-16.355-6.036-16.355-13.482M158.003 64.59l3.621 1.902a4.025 4.025 0 0 0 5.131-1.205c.785-1.086 1.244-3.582-.247-4.683l-3.175-1.966-2.649-1.72a4.024 4.024 0 0 0-5.431 1.689 4.013 4.013 0 0 0 .019 3.775m28.446-4.465c2.883-3.214 1.346-5.847-.509-6.917a3.883 3.883 0 0 0-5.299 1.418l-1.803 3.12a.237.237 0 0 1-.275.107.23.23 0 0 1-.124-.094.232.232 0 0 1-.039-.15l.959-10.982a3.576 3.576 0 0 0-2.983-3.828 3.58 3.58 0 0 0-4.089 2.805l-2.861 13.845" stroke="#465175" stroke-width=".8" stroke-miterlimit="10" stroke-linecap="round"/><path d="M178.478 64.795c-.48.946-.217 2.251.668 3.136a3.88 3.88 0 0 0 5.485 0l5.311-5.307a3.877 3.877 0 0 0 0-5.482 3.881 3.881 0 0 0-5.486 0l-4.911 5.367a3.25 3.25 0 0 1-5.147-3.922m16.737 12.139c1.45-1.37 1.918-2.906 1.012-4.471a3.442 3.442 0 0 0-4.604-1.233m-6.898 4.94c-.749 1.2.057 2.438.057 2.438a3.274 3.274 0 0 0 4.474 1.198l5.135-3.636" stroke="#465175" stroke-width=".8" stroke-miterlimit="10" stroke-linecap="round"/><path d="M154.984 61.707s2.073 5.611 3.748 10.034c2.421 6.39 7.16 9.75 13.092 10.488 4.915.612 8.718-1.474 12.719-5.116 4.433-4.034 7.183-7.011 7.183-7.011M80.748 110.016l-3.942 1.089a4.022 4.022 0 0 1-4.757-2.267c-.537-1.228-.454-3.764 1.237-4.524l3.52-1.246 2.954-1.119a4.023 4.023 0 0 1 4.949 2.804 4.014 4.014 0 0 1-.821 3.685M57.04 98.031c-2.135-3.752-.074-5.999 1.968-6.65a3.88 3.88 0 0 1 4.877 2.511l1.098 3.432" stroke="#465175" stroke-width=".8" stroke-miterlimit="10" stroke-linecap="round"/><path d="M60.698 105.868c.268 1.026-.267 2.245-1.32 2.921a3.878 3.878 0 0 1-5.36-1.164l-4.061-6.314a3.874 3.874 0 0 1 1.166-5.357 3.882 3.882 0 0 1 5.36 1.165l3.657 6.288a3.25 3.25 0 0 0 4.383 1.209 3.246 3.246 0 0 0 1.482-3.949m-18.935 8.307c-1.125-1.647-1.254-3.246-.037-4.584a3.446 3.446 0 0 1 4.757-.227m5.691 6.293c.477 1.331-.574 2.369-.574 2.369a3.255 3.255 0 0 1-1.027.76 3.291 3.291 0 0 1-2.504.12 3.287 3.287 0 0 1-1.095-.658l-4.246-4.644" stroke="#465175" stroke-width=".8" stroke-miterlimit="10" stroke-linecap="round"/><path d="M84.311 107.837s-3.218 5.043-5.796 9.008c-3.725 5.731-9.07 8.007-15.023 7.469-4.932-.446-8.206-3.292-11.341-7.7-3.474-4.883-5.528-8.376-5.528-8.376m18.359-17.237v6.324m8.393 5.046l-.004-11.37m-4.195 3.774a4.193 4.193 0 0 0 4.195-4.192 4.193 4.193 0 0 0-4.195-4.19 4.193 4.193 0 0 0-4.194 4.19 4.193 4.193 0 0 0 4.194 4.192zm51.253-38.838v5.317a1.686 1.686 0 0 0 1.687 1.685m4.122-8.291a2.737 2.737 0 0 1 3.874-.025m-18.214.025a2.748 2.748 0 0 1 1.933-.815 2.737 2.737 0 0 1 1.942.79" stroke="#465175" stroke-width=".8" stroke-miterlimit="10" stroke-linecap="round"/><path d="M113.266 76.99l-.667 4.915 11.978-3.017a.246.246 0 0 0 .155-.125.241.241 0 0 0-.1-.318.237.237 0 0 0-.159-.024c-2.308.442-6.5.458-8.942-.535-2.348-.956-2.265-.895-2.265-.895z" fill="#465175"/></svg>