<svg width="96" height="96" viewBox="0 0 96 96" fill="none" xmlns="http://www.w3.org/2000/svg"><circle cx="27.5" cy="24.5" r="12.5" stroke="#FFB450" stroke-width="4"/><path d="M9 48a2 2 0 0 1 2-2h33a2 2 0 0 1 2 2v15c0 9.941-8.059 18-18 18h-1c-9.941 0-18-8.059-18-18V48z" stroke="#FFB450" stroke-width="4" stroke-linejoin="round"/><circle cx="48.5" cy="24.5" r="14.5" fill="#FFD296" style="mix-blend-mode:multiply"/><path d="M28 48a4 4 0 0 1 4-4h33a4 4 0 0 1 4 4v15c0 11.046-8.954 20-20 20h-1c-11.046 0-20-8.954-20-20V48z" fill="#FFD296" style="mix-blend-mode:multiply"/><circle cx="70.512" cy="50.573" r="15.967" fill="#FFB450" style="mix-blend-mode:multiply"/><path d="M70.759 45.472v10.693m-5.346-5.349h10.693" stroke="#fff" stroke-width="5" stroke-linecap="round"/></svg>