<svg width="90" height="18" viewBox="0 0 90 18" fill="none" xmlns="http://www.w3.org/2000/svg"><path fill-rule="evenodd" clip-rule="evenodd" d="M9.018 14.342l-3.934 2.52c-.69.432-1.52-.216-1.312-1.009l1.035-4.681-3.52-3.169C.735 7.5 1.011 6.491 1.84 6.42l4.556-.432L8.19 1.594c.345-.792 1.31-.792 1.656 0l1.794 4.394 4.556.43c.76.073 1.104 1.082.483 1.585l-3.451 3.17 1.035 4.68c.138.792-.621 1.44-1.311 1.009L9.017 14.34zm18 0l-3.934 2.52c-.69.432-1.52-.216-1.312-1.009l1.035-4.681-3.52-3.169c-.552-.503-.276-1.512.552-1.583l4.556-.432 1.794-4.394c.346-.792 1.312-.792 1.657 0l1.794 4.394 4.556.43c.76.073 1.104 1.082.483 1.585l-3.451 3.17 1.035 4.68c.138.792-.621 1.44-1.311 1.009l-3.935-2.521zm18 0l-3.934 2.52c-.69.432-1.52-.216-1.312-1.009l1.035-4.681-3.52-3.169c-.552-.503-.276-1.512.552-1.583l4.556-.432 1.794-4.394c.346-.792 1.312-.792 1.657 0l1.794 4.394 4.556.43c.76.073 1.104 1.082.483 1.585l-3.451 3.17 1.035 4.68c.138.792-.621 1.44-1.311 1.009l-3.935-2.521zm18 0l-3.934 2.52c-.69.432-1.52-.216-1.312-1.009l1.035-4.681-3.52-3.169c-.552-.503-.276-1.512.552-1.583l4.556-.432 1.794-4.394c.346-.792 1.312-.792 1.657 0l1.794 4.394 4.556.43c.76.073 1.104 1.082.483 1.585l-3.451 3.17 1.035 4.68c.138.792-.621 1.44-1.311 1.009l-3.935-2.521zm18 0l-3.934 2.52c-.69.432-1.52-.216-1.312-1.009l1.035-4.681-3.52-3.169c-.552-.503-.276-1.512.552-1.583l4.556-.432 1.794-4.394c.346-.792 1.312-.792 1.657 0l1.794 4.394 4.556.43c.76.073 1.104 1.082.483 1.585l-3.451 3.17 1.035 4.68c.138.792-.621 1.44-1.311 1.009l-3.935-2.521z" fill="#FFB450"/></svg>