<svg width="90" height="18" viewBox="0 0 90 18" fill="none" xmlns="http://www.w3.org/2000/svg"><path fill-rule="evenodd" clip-rule="evenodd" d="M9.018 14.342l-3.934 2.52c-.69.432-1.52-.216-1.312-1.009l1.035-4.681-3.52-3.169C.735 7.5 1.011 6.491 1.84 6.42l4.556-.432L8.19 1.594c.345-.792 1.31-.792 1.656 0l1.794 4.394 4.556.43c.76.073 1.104 1.082.483 1.585l-3.451 3.17 1.035 4.68c.138.792-.621 1.44-1.311 1.009L9.017 14.34zm18 0l-3.934 2.52c-.69.432-1.52-.216-1.312-1.009l1.035-4.681-3.52-3.169c-.552-.503-.276-1.512.552-1.583l4.556-.432 1.794-4.394c.346-.792 1.312-.792 1.657 0l1.794 4.394 4.556.43c.76.073 1.104 1.082.483 1.585l-3.451 3.17 1.035 4.68c.138.792-.621 1.44-1.311 1.009l-3.935-2.521zm18 0l-3.934 2.52c-.69.432-1.52-.216-1.312-1.009l1.035-4.681-3.52-3.169c-.552-.503-.276-1.512.552-1.583l4.556-.432 1.794-4.394c.346-.792 1.312-.792 1.657 0l1.794 4.394 4.556.43c.76.073 1.104 1.082.483 1.585l-3.451 3.17 1.035 4.68c.138.792-.621 1.44-1.311 1.009l-3.935-2.521zm18 0l-3.934 2.52c-.69.432-1.52-.216-1.312-1.009l1.035-4.681-3.52-3.169c-.552-.503-.276-1.512.552-1.583l4.556-.432 1.794-4.394c.346-.792 1.312-.792 1.657 0l1.794 4.394 4.556.43c.76.073 1.104 1.082.483 1.585l-3.451 3.17 1.035 4.68c.138.792-.621 1.44-1.311 1.009l-3.935-2.521z" fill="#FFB450"/><path d="M81.287 13.92l-.27-.172-.27.173-3.93 2.518a.352.352 0 0 1-.42-.018.41.41 0 0 1-.141-.441l.002-.01.002-.009 1.036-4.681.063-.285-.217-.195-3.518-3.166a.41.41 0 0 1-.102-.432.395.395 0 0 1 .36-.284h.004l4.556-.433.301-.028.115-.28 1.792-4.388c.1-.225.256-.289.368-.289.112 0 .268.064.368.29l1.791 4.387.115.28.301.028 4.555.432a.39.39 0 0 1 .33.284.364.364 0 0 1-.114.414l-.012.01-.01.01-3.452 3.17-.213.194.063.281 1.032 4.67a.504.504 0 0 1-.166.476c-.104.083-.234.108-.387.013l-3.932-2.518z" stroke="#FFB450"/><path d="M77.084 16.861l3.934-2.52L81 4.5V1c-.322.007-.64.205-.81.594l-1.795 4.393-4.556.432c-.828.072-1.104 1.08-.552 1.584l3.52 3.169-1.035 4.68c-.207.794.621 1.442 1.312 1.01z" fill="#FFB450"/></svg>