<svg width="510" height="440" viewBox="0 0 510 440" fill="none" xmlns="http://www.w3.org/2000/svg"><path d="M318.844 154.8c.022-19.01-15.372-34.438-34.381-34.459-19.01-.021-34.437 15.372-34.459 34.382-.021 19.009 15.372 34.437 34.382 34.458 19.009.022 34.437-15.372 34.458-34.381z" fill="#52C2CC"/><path d="M130.726 42.002H94.379a45.25 45.25 0 0 0-28.288 80.922l39.997 33.848a5.958 5.958 0 0 0 6.943.529 5.952 5.952 0 0 0 2.697-6.421l-3.668-15.792a1.992 1.992 0 0 1 .379-1.684 1.99 1.99 0 0 1 1.555-.751h16.626a45.327 45.327 0 0 0 32.419-77.49 45.331 45.331 0 0 0-32.317-13.157l.004-.004z" fill="#D7F0F2"/><path d="M92.031 101.218c7.729 0 13.994-6.22 13.994-13.893 0-7.672-6.265-13.892-13.994-13.892-7.728 0-13.993 6.22-13.993 13.892 0 7.673 6.265 13.893 13.993 13.893zm41.806 0c7.728 0 13.994-6.22 13.994-13.893 0-7.672-6.266-13.892-13.994-13.892s-13.993 6.22-13.993 13.892c0 7.673 6.265 13.893 13.993 13.893z" fill="#52C2CC"/><path d="M461.296 251.603a52.532 52.532 0 0 0-52.322-52.736h-41.611a52.798 52.798 0 0 0-36.881 89.975 52.799 52.799 0 0 0 36.998 15.613h19.204a1.99 1.99 0 0 1 1.935 2.427l-5.968 26.148a4.557 4.557 0 0 0 4.753 5.641 4.552 4.552 0 0 0 2.609-1.065l50.014-43.447a52.894 52.894 0 0 0 21.269-42.556z" fill="#FFBD66"/><path d="M235.429 200.405h-14.94a5.234 5.234 0 0 0 0 10.468h14.94a5.234 5.234 0 1 0 0-10.468z" fill="#52C2CC"/><path d="M280.108 175.644c27.289 82.364-58.001 183.056-137.439 141.905-23.526-12.192-49.956-52.774-21.667-101.891 14.651-25.439 14.054-65.606 20.981-91.012 11.166-40.97 38.765-64.678 71.237-64.678 40.234 0 66.446 35.029 67.863 55.977.84 12.411-3.651 24.711-19.449 24.711-12.917 0-28.696-12.456-35.36-29.433a1.29 1.29 0 0 0-1.247-.942 1.28 1.28 0 0 0-1.236.957 38.727 38.727 0 0 1-37.591 29.418h-35.147c-6.106 0-8.54 4.95-8.54 11.057 0 7.138 5.832 17.791 11.72 18.56a.958.958 0 0 1 .805.791c6.386 34.231 28.486 58.093 58.938 58.093a53.83 53.83 0 0 0 10.615-1.055" stroke="#465175" stroke-width="1.2" stroke-miterlimit="10" stroke-linecap="round"/><path d="M210.281 155.922v17.04c0 1.433.569 2.807 1.583 3.82a5.399 5.399 0 0 0 3.82 1.583m-12.822 9.736a1.15 1.15 0 0 0-1.068 1.589 12.19 12.19 0 0 0 17.882 5.348 12.187 12.187 0 0 0 4.495-5.348 1.153 1.153 0 0 0-.107-1.081 1.137 1.137 0 0 0-.96-.508h-20.242zm39.723 33.16s4.093 33.676 5.234 44.59a5.05 5.05 0 0 0 3.911 4.379c9.709 2.248 48.52 12.587 74.153 35.683" stroke="#465175" stroke-width="1.2" stroke-miterlimit="10" stroke-linecap="round"/><path d="M188.605 222.841c-.827 1.24-1.238 15.755-1.238 15.755l37.468-9.671a.754.754 0 0 0 .495-.401.755.755 0 0 0 .024-.636.76.76 0 0 0-.851-.461c-7.397 1.418-21.114 2.101-28.647-1.717-11.739-5.95-7.251-2.869-7.251-2.869z" fill="#465175"/><path d="M70.223 317.387c48.175-35.537 86.795-48.138 108.997-50.76a6.63 6.63 0 0 0 5.841-5.898c1.454-13.973 3.882-37.753 3.882-36.859m50.45-.85c18.612-9.511 29.805-27.873 33.728-51.684a.96.96 0 0 1 .809-.812c5.787-.787 11.253-11.294 11.253-18.336 0-6.032-2.41-10.922-8.437-10.922-3.502 0-6.609 2.571-6.602 7.977" stroke="#465175" stroke-width="1.2" stroke-miterlimit="10" stroke-linecap="round"/><path d="M230.902 158.201a1.253 1.253 0 0 1-1.008-.503 1.267 1.267 0 0 1-.202-1.109 5.64 5.64 0 0 1 10.81 0 1.256 1.256 0 0 1-.647 1.479 1.253 1.253 0 0 1-.563.133h-8.39zm-45.933 0a1.254 1.254 0 0 1-1.008-.503 1.254 1.254 0 0 1-.203-1.109 5.64 5.64 0 0 1 10.811 0 1.256 1.256 0 0 1-.203 1.109 1.252 1.252 0 0 1-1.008.503h-8.389z" fill="#465175"/><path d="M228.892 152.037a8.783 8.783 0 0 1 6.189-2.612 8.768 8.768 0 0 1 6.222 2.534m-58.345.078a8.771 8.771 0 0 1 12.411-.078m45.299 53.679h27.041a8.93 8.93 0 0 0 8.931-8.931v-8.495m115.961 199.31a59.44 59.44 0 0 1-34.59 10.472c-28.742 0-52.042-19.083-52.042-42.623 0-12.033 6.088-22.902 15.877-30.652m76.88-9.098h33.164a9.17 9.17 0 0 0 0-18.338h-24.83m-52.818 36.138c13.751-4.928 23.573-20.791 23.573-36.138" stroke="#465175" stroke-width="1.2" stroke-miterlimit="10" stroke-linecap="round"/><path d="M398.412 315.621h43.543a9.317 9.317 0 0 1 9.318 9.318 9.322 9.322 0 0 1-9.318 9.318h-6.947m-25.474 17.457l27.193-.066a8.697 8.697 0 0 0 8.648-8.663 8.695 8.695 0 0 0-8.695-8.727h-38.276" stroke="#465175" stroke-width="1.2" stroke-miterlimit="10" stroke-linecap="round"/><path d="M377.816 297.283h14.861a10.298 10.298 0 0 0 7.305-3.042 10.307 10.307 0 0 0 2.985-7.328 10.289 10.289 0 0 0-10.29-10.207h-21.885c-26.687 0-48.776 21.539-48.776 47.693v2.239c0 24.674 20.226 42.686 44.998 44.676 12.59 1.013 32.764-1.741 42.812-3.677 2.789-.537 4.886-1.042 6.609-1.528a7.38 7.38 0 0 0 4.832-9.822 7.27 7.27 0 0 0-3.946-4.004 7.274 7.274 0 0 0-2.811-.565h-16.097" stroke="#465175" stroke-width="1.2" stroke-miterlimit="10" stroke-linecap="round"/><path d="M393.439 252.57a5.458 5.458 0 1 0-10.915-.013 5.458 5.458 0 0 0 10.915.013zm-103.557-97.805a5.458 5.458 0 1 0-10.915-.01 5.458 5.458 0 0 0 10.915.01z" fill="#465175"/><path d="M284.431 154.762h87.762a15.875 15.875 0 0 1 14.669 9.802 15.875 15.875 0 0 1 1.209 6.076v81.85" stroke="#465175" stroke-width="2" stroke-linecap="round" stroke-linejoin="round" stroke-dasharray="1 6"/></svg>